# xmcd
# 
# Track frame offsets:
#     150
#     17517
#     43599
#     63449
#     81191
#     100644
#     119876
#     132281
#     152125
#     178282
#     205702
#     223326
#     245259
#     262779
#     288008
#     312714
# 
# Disc length: 4454
# 
# Revision: 3
# Processed by: cddbd v1.5.2PL0 Copyright (c) Steve Scherf et al.
# Submitted via: fre:ac v1.0.27
# 
DISCID=e6116410
DTITLE=藤井フミヤ - FUMIYA FUJII ANNIVERSARY BEST 25/35 [disc1]
DYEAR=0
DGENRE=
TTITLE0=TRUE LOVE
TTITLE1=エンジェル
TTITLE2=紙飛行機
TTITLE3=タイムマシーン
TTITLE4=ストレイキャット
TTITLE5=マリア
TTITLE6=Tokyo Runaway Blues
TTITLE7=Sweet Sea Side
TTITLE8=P.S.マリア
TTITLE9=Labyrinth
TTITLE10=Hello my tears
TTITLE11=Another Orion
TTITLE12=GIRL FRIEND
TTITLE13=MY PLANETS
TTITLE14=Snow Crystal
TTITLE15=DO NOT
EXTD=
EXTT0=
EXTT1=
EXTT2=
EXTT3=
EXTT4=
EXTT5=
EXTT6=
EXTT7=
EXTT8=
EXTT9=
EXTT10=
EXTT11=
EXTT12=
EXTT13=
EXTT14=
EXTT15=
PLAYORDER=
